<svg width="600" height="200" viewBox="0 0 600 200" fill="none" xmlns="http://www.w3.org/2000/svg">
<rect width="600" height="200" rx="30" fill="black"/>
<path d="M297.41 142.107C298.157 142.813 298.998 143.166 299.932 143.166C300.959 143.166 301.8 142.813 302.454 142.107C303.108 141.299 303.435 140.391 303.435 139.382V67.568H565.497C566.525 67.568 567.365 67.2148 568.019 66.5085C568.673 65.7012 569 64.7931 569 63.784C569 62.674 568.673 61.7659 568.019 61.0595C567.365 60.3532 566.525 60 565.497 60L34.5027 60C33.5687 60 32.728 60.3532 31.9808 61.0595C31.3269 61.7659 31 62.674 31 63.784C31 64.7931 31.3269 65.7012 31.9808 66.5085C32.728 67.2148 33.5687 67.568 34.5027 67.568L296.429 67.568V139.382C296.429 140.391 296.756 141.299 297.41 142.107Z" fill="white"/>
<path fill-rule="evenodd" clip-rule="evenodd" d="M70.1957 151.798C73.9787 154.599 78.8475 156 84.8022 156C85.5728 156 86.2033 155.72 86.6937 155.16C87.1841 154.669 87.4292 154.074 87.4292 153.374C87.4292 152.673 87.1841 152.043 86.6937 151.483C86.2033 150.993 85.5728 150.747 84.8022 150.747C80.739 150.747 77.2363 149.907 74.2939 148.226C71.4217 146.545 69.3201 144.409 67.989 141.818C73.033 141.328 77.3413 139.752 80.9141 137.091C84.4869 134.429 87.1841 131.033 89.0055 126.901C90.897 122.699 91.8427 118.041 91.8427 112.929C91.8427 107.186 90.6168 102.143 88.1648 97.8012C85.783 93.389 82.5254 89.9573 78.3922 87.5061C74.329 85.0549 69.8104 83.8293 64.8365 83.8293C59.3722 83.8293 54.5735 85.0549 50.4402 87.5061C46.3771 89.9573 43.1896 93.389 40.8777 97.8012C38.5659 102.213 37.41 107.361 37.41 113.244C37.41 118.286 38.4609 122.909 40.5625 127.111C42.6641 131.243 45.6065 134.639 49.3894 137.301C53.1724 139.892 57.5158 141.398 62.4196 141.818C63.8207 145.74 66.4128 149.067 70.1957 151.798ZM53.1724 92.2334C56.535 90.1324 60.4231 89.0819 64.8365 89.0819C68.8997 89.0819 72.5776 90.1324 75.8702 92.2334C79.1628 94.2644 81.7548 97.0658 83.6463 100.638C85.6078 104.209 86.5886 108.306 86.5886 112.929C86.5886 117.341 85.7479 121.368 84.0666 125.01C82.3853 128.581 79.8983 131.418 76.6058 133.519C73.3832 135.62 69.4602 136.67 64.8365 136.67C60.4931 136.67 56.6401 135.62 53.2775 133.519C49.9148 131.418 47.2878 128.581 45.3963 125.01C43.5749 121.438 42.6641 117.516 42.6641 113.244C42.6641 108.481 43.5749 104.314 45.3963 100.743C47.2878 97.1009 49.8798 94.2644 53.1724 92.2334Z" fill="white"/>
<path d="M117.446 131.943C114.153 128.792 112.507 124.309 112.507 118.496V87.4011C112.507 86.6307 112.262 86.0004 111.771 85.5101C111.281 85.0199 110.651 84.7748 109.88 84.7748C109.179 84.7748 108.549 85.0199 107.988 85.5101C107.498 86.0004 107.253 86.6307 107.253 87.4011V118.496C107.253 125.99 109.39 131.768 113.663 135.83C118.006 139.892 123.576 141.923 130.371 141.923C137.867 141.923 143.646 139.892 147.71 135.83C151.843 131.698 153.909 125.815 153.909 118.181V87.4011C153.909 86.6307 153.664 86.0004 153.174 85.5101C152.684 85.0199 152.053 84.7748 151.282 84.7748C150.582 84.7748 149.951 85.0199 149.391 85.5101C148.901 86.0004 148.655 86.6307 148.655 87.4011V118.181C148.655 124.134 147.044 128.722 143.822 131.943C140.669 135.095 136.186 136.67 130.371 136.67C125.117 136.67 120.809 135.095 117.446 131.943Z" fill="white"/>
<path d="M174.002 140.242C174.563 140.732 175.193 140.978 175.894 140.978H205.212C205.982 140.978 206.613 140.732 207.103 140.242C207.594 139.682 207.839 139.052 207.839 138.351C207.839 137.581 207.594 136.951 207.103 136.46C206.613 135.97 205.982 135.725 205.212 135.725H178.521V113.559H200.483C201.254 113.559 201.884 113.314 202.375 112.824C202.865 112.263 203.11 111.633 203.11 110.933C203.11 110.162 202.865 109.532 202.375 109.042C201.884 108.552 201.254 108.306 200.483 108.306H178.521V90.0274H205.002C205.772 90.0274 206.403 89.7822 206.893 89.292C207.384 88.7317 207.629 88.1014 207.629 87.4011C207.629 86.6307 207.384 86.0004 206.893 85.5101C206.403 85.0199 205.772 84.7748 205.002 84.7748H175.579C174.948 84.7748 174.388 85.0549 173.897 85.6152C173.477 86.1054 173.267 86.7007 173.267 87.4011V138.351C173.267 139.052 173.512 139.682 174.002 140.242Z" fill="white"/>
<path d="M247.487 90.0274C249.519 90.4476 251.375 91.0078 253.056 91.7082C253.967 92.0584 254.563 92.3035 254.843 92.4436C255.123 92.5136 255.333 92.5486 255.473 92.5486C256.174 92.5486 256.769 92.3035 257.26 91.8132C257.82 91.253 258.1 90.6226 258.1 89.9223C258.1 88.7317 257.54 87.9263 256.419 87.5061C253.827 86.4556 251.34 85.6502 248.958 85.0899C246.646 84.4596 243.564 84.1444 239.711 84.1444C236.068 84.1444 232.986 84.8098 230.464 86.1404C227.942 87.4711 226.015 89.1869 224.684 91.288C223.423 93.319 222.793 95.455 222.793 97.6961C222.793 100.147 223.283 102.388 224.264 104.419C225.315 106.45 227.171 108.271 229.833 109.882C232.565 111.493 236.418 112.929 241.392 114.189C246.716 115.52 250.534 117.166 252.846 119.127C255.228 121.088 256.419 123.539 256.419 126.48C256.419 129.282 255.158 131.698 252.636 133.729C250.184 135.69 246.576 136.67 241.813 136.67C235.788 136.67 230.288 135.27 225.315 132.468C224.894 132.258 224.474 132.153 224.054 132.153C223.283 132.153 222.653 132.433 222.162 132.994C221.672 133.554 221.427 134.149 221.427 134.779C221.427 135.76 221.882 136.53 222.793 137.091C228.607 140.312 234.947 141.923 241.813 141.923C246.646 141.923 250.499 141.188 253.372 139.717C256.314 138.176 258.416 136.25 259.677 133.939C261.008 131.558 261.673 129.072 261.673 126.48C261.673 123.819 261.113 121.403 259.992 119.232C258.871 116.991 256.909 114.995 254.107 113.244C251.375 111.493 247.487 110.057 242.443 108.937C236.769 107.606 232.951 106.03 230.989 104.209C229.027 102.388 228.047 100.357 228.047 98.1164C228.047 95.8752 229.098 93.8793 231.199 92.1284C233.301 90.3075 236.138 89.397 239.711 89.397C242.933 89.397 245.525 89.6071 247.487 90.0274Z" fill="white"/>
<path fill-rule="evenodd" clip-rule="evenodd" d="M376.692 140.032C377.253 140.662 377.918 140.978 378.689 140.978C379.46 140.978 380.09 140.697 380.58 140.137C381.071 139.577 381.316 138.982 381.316 138.351C381.316 137.651 381.106 137.091 380.685 136.67L365.659 119.127C370.002 117.936 373.19 115.8 375.221 112.719C377.323 109.637 378.374 106.205 378.374 102.423C378.374 98.9918 377.533 95.9803 375.852 93.389C374.24 90.7277 371.929 88.6267 368.916 87.0859C365.974 85.5451 362.436 84.7748 358.303 84.7748H342.856C342.155 84.7748 341.525 85.0199 340.964 85.5101C340.474 86.0004 340.229 86.6307 340.229 87.4011V138.351C340.229 139.052 340.474 139.682 340.964 140.242C341.525 140.732 342.155 140.978 342.856 140.978C343.626 140.978 344.257 140.732 344.747 140.242C345.238 139.682 345.483 139.052 345.483 138.351V120.072H359.564L376.692 140.032ZM345.483 114.82V90.0274H358.303C362.646 90.0274 366.184 91.1829 368.916 93.4941C371.718 95.7352 373.12 98.7117 373.12 102.423C373.12 105.855 371.859 108.797 369.337 111.248C366.815 113.629 363.137 114.82 358.303 114.82H345.483Z" fill="white"/>
<path fill-rule="evenodd" clip-rule="evenodd" d="M440.613 139.297C441.033 140.417 441.839 140.978 443.03 140.978C443.73 140.978 444.326 140.732 444.816 140.242C445.377 139.682 445.657 139.052 445.657 138.351C445.657 138.211 445.587 137.931 445.447 137.511C445.377 137.091 445.061 136.25 444.501 134.99C443.45 132.398 442.084 129.142 440.403 125.22C438.721 121.228 436.865 116.956 434.833 112.403C432.802 107.781 430.7 103.124 428.528 98.4315C426.427 93.7392 424.43 89.362 422.539 85.3C422.118 84.3195 421.278 83.8293 420.017 83.8293H419.596C418.405 83.8293 417.565 84.3545 417.074 85.4051C415.253 89.397 413.361 93.6341 411.4 98.1164C409.438 102.599 407.512 107.046 405.62 111.458C403.729 115.87 401.943 120.107 400.261 124.169C398.65 128.231 397.249 131.838 396.058 134.99C395.568 136.18 395.252 136.986 395.112 137.406C395.042 137.756 395.007 138.036 395.007 138.246C395.007 139.017 395.252 139.682 395.743 140.242C396.303 140.732 396.899 140.978 397.529 140.978C398.089 140.978 398.615 140.837 399.105 140.557C399.596 140.207 399.946 139.752 400.156 139.192C400.857 137.301 401.627 135.235 402.468 132.994C403.379 130.682 404.324 128.266 405.305 125.745H434.938C436.059 128.266 437.11 130.682 438.091 132.994C439.072 135.305 439.912 137.406 440.613 139.297ZM426.322 106.1C428.563 111.003 430.7 115.8 432.732 120.492H407.512C409.473 115.8 411.505 111.038 413.607 106.205C415.778 101.303 417.845 96.6106 419.807 92.1284C421.908 96.5406 424.08 101.198 426.322 106.1Z" fill="white"/>
<path d="M485.504 89.0819C490.758 89.0819 495.101 89.9923 498.534 91.8132C498.954 92.0233 499.374 92.1284 499.795 92.1284C500.565 92.1284 501.196 91.8483 501.686 91.288C502.177 90.7277 502.422 90.1324 502.422 89.5021C502.422 88.5216 501.966 87.7512 501.056 87.191C496.993 84.9498 491.808 83.8293 485.504 83.8293C480.39 83.8293 475.661 85.0549 471.317 87.5061C466.974 89.9573 463.471 93.389 460.809 97.8012C458.147 102.213 456.816 107.361 456.816 113.244C456.816 118.637 457.972 123.504 460.284 127.846C462.596 132.188 465.923 135.62 470.267 138.141C474.68 140.662 479.969 141.923 486.134 141.923C489.076 141.923 491.844 141.608 494.436 140.978C497.028 140.417 499.374 139.577 501.476 138.456C502.457 138.036 502.947 137.266 502.947 136.145C502.947 135.375 502.702 134.744 502.212 134.254C501.721 133.764 501.091 133.519 500.32 133.519C499.9 133.519 499.515 133.624 499.164 133.834C497.413 134.744 495.416 135.445 493.175 135.935C491.003 136.425 488.656 136.67 486.134 136.67C481.09 136.67 476.747 135.655 473.104 133.624C469.531 131.523 466.799 128.722 464.907 125.22C463.016 121.648 462.07 117.656 462.07 113.244C462.07 108.411 463.156 104.209 465.328 100.638C467.499 96.9958 470.337 94.1594 473.839 92.1284C477.412 90.0974 481.3 89.0819 485.504 89.0819Z" fill="white"/>
<path d="M558.263 140.032C558.824 140.662 559.489 140.978 560.26 140.978C561.03 140.978 561.661 140.697 562.151 140.137C562.642 139.577 562.887 138.982 562.887 138.351C562.887 137.651 562.677 137.091 562.256 136.67C560.925 135.13 559.279 133.204 557.317 130.893C555.426 128.581 553.394 126.13 551.223 123.539C549.051 120.948 546.914 118.391 544.813 115.87C542.781 113.349 540.96 111.143 539.348 109.252C542.921 105.96 546.564 102.529 550.277 98.9568C554.06 95.315 557.317 92.0584 560.05 89.1869C560.54 88.5566 560.785 87.9613 560.785 87.4011C560.785 86.7007 560.505 86.1054 559.945 85.6152C559.454 85.0549 558.859 84.7748 558.158 84.7748C557.458 84.7748 556.827 85.0549 556.267 85.6152C554.165 87.7862 551.748 90.2024 549.016 92.8638C546.284 95.455 543.482 98.1164 540.609 100.848C537.737 103.509 534.97 106.065 532.308 108.517C529.716 110.898 527.439 112.999 525.478 114.82V87.4011C525.478 86.6307 525.232 86.0004 524.742 85.5101C524.252 85.0199 523.621 84.7748 522.85 84.7748C522.15 84.7748 521.519 85.0199 520.959 85.5101C520.469 86.0004 520.223 86.6307 520.223 87.4011V138.351C520.223 139.052 520.469 139.682 520.959 140.242C521.519 140.732 522.15 140.978 522.85 140.978C523.621 140.978 524.252 140.732 524.742 140.242C525.232 139.682 525.478 139.052 525.478 138.351V121.858C526.528 120.878 527.929 119.617 529.681 118.076C531.432 116.465 533.359 114.68 535.46 112.719C537.072 114.68 538.893 116.921 540.925 119.442C543.026 121.893 545.128 124.414 547.23 127.006C549.401 129.597 551.433 132.048 553.324 134.359C555.286 136.6 556.932 138.491 558.263 140.032Z" fill="white"/>
</svg>
