<svg width="200" height="36" viewBox="0 0 200 36" fill="none" xmlns="http://www.w3.org/2000/svg">
<path d="M99.0372 30.5317C99.315 30.7944 99.6275 30.9257 99.9747 30.9257C100.357 30.9257 100.669 30.7944 100.912 30.5317C101.155 30.2316 101.277 29.8939 101.277 29.5186V2.8142H198.698C199.08 2.8142 199.392 2.68287 199.635 2.42021C199.878 2.12003 200 1.78233 200 1.4071C200 0.99435 199.878 0.656648 199.635 0.393991C199.392 0.131331 199.08 1.67739e-06 198.698 1.67739e-06L1.30214 0C0.9549 0 0.642387 0.13133 0.364598 0.393989C0.121533 0.656646 0 0.994349 0 1.4071C0 1.78232 0.121533 2.12003 0.364598 2.42021C0.642387 2.68287 0.9549 2.8142 1.30214 2.8142L98.6726 2.8142V29.5186C98.6726 29.8939 98.7941 30.2316 99.0372 30.5317Z" fill="white"/>
<path fill-rule="evenodd" clip-rule="evenodd" d="M14.5709 34.1355C15.9772 35.1772 17.7872 35.6981 20.0008 35.6981C20.2873 35.6981 20.5217 35.5939 20.704 35.3856C20.8863 35.2033 20.9774 34.9819 20.9774 34.7215C20.9774 34.461 20.8863 34.2267 20.704 34.0183C20.5217 33.836 20.2873 33.7449 20.0008 33.7449C18.4903 33.7449 17.1882 33.4324 16.0944 32.8073C15.0267 32.1823 14.2454 31.388 13.7506 30.4244C15.6256 30.2421 17.2273 29.6562 18.5554 28.6665C19.8836 27.6769 20.8863 26.4138 21.5634 24.8773C22.2665 23.3147 22.6181 21.5829 22.6181 19.6818C22.6181 17.5463 22.1624 15.6712 21.2509 14.0566C20.3654 12.4159 19.1544 11.1398 17.6179 10.2283C16.1074 9.31678 14.4277 8.86104 12.5786 8.86104C10.5473 8.86104 8.76338 9.31678 7.22686 10.2283C5.71638 11.1398 4.53143 12.4159 3.67202 14.0566C2.81261 15.6973 2.38291 17.6114 2.38291 19.799C2.38291 21.6741 2.77355 23.3929 3.55483 24.9554C4.33611 26.492 5.42991 27.755 6.83622 28.7447C8.24252 29.7082 9.85717 30.2682 11.6802 30.4244C12.201 31.8828 13.1646 33.1198 14.5709 34.1355ZM8.24252 11.9862C9.49257 11.2049 10.9379 10.8142 12.5786 10.8142C14.0891 10.8142 15.4564 11.2049 16.6804 11.9862C17.9044 12.7414 18.868 13.7831 19.5711 15.1113C20.3003 16.4395 20.6649 17.963 20.6649 19.6818C20.6649 21.3225 20.3524 22.8199 19.7274 24.1742C19.1023 25.5023 18.1778 26.5571 16.9538 27.3384C15.7559 28.1196 14.2975 28.5103 12.5786 28.5103C10.964 28.5103 9.53164 28.1196 8.28159 27.3384C7.03154 26.5571 6.05493 25.5023 5.35178 24.1742C4.67467 22.846 4.33611 21.3876 4.33611 19.799C4.33611 18.0281 4.67467 16.4785 5.35178 15.1504C6.05493 13.7961 7.01852 12.7414 8.24252 11.9862Z" fill="white"/>
<path d="M32.136 26.7524C30.912 25.5805 30.3 23.9137 30.3 21.7522V10.1892C30.3 9.90275 30.2089 9.66836 30.0266 9.48606C29.8443 9.30376 29.6099 9.21261 29.3234 9.21261C29.063 9.21261 28.8286 9.30376 28.6202 9.48606C28.4379 9.66836 28.3468 9.90275 28.3468 10.1892V21.7522C28.3468 24.5388 29.1411 26.6873 30.7297 28.1978C32.3444 29.7082 34.4148 30.4635 36.9409 30.4635C39.7275 30.4635 41.876 29.7082 43.3865 28.1978C44.923 26.6612 45.6913 24.4737 45.6913 21.635V10.1892C45.6913 9.90275 45.6001 9.66836 45.4178 9.48606C45.2355 9.30376 45.0011 9.21261 44.7146 9.21261C44.4542 9.21261 44.2198 9.30376 44.0115 9.48606C43.8292 9.66836 43.738 9.90275 43.738 10.1892V21.635C43.738 23.8486 43.1391 25.5544 41.9411 26.7524C40.7692 27.9243 39.1024 28.5103 36.9409 28.5103C34.9877 28.5103 33.3861 27.9243 32.136 26.7524Z" fill="white"/>
<path d="M53.1607 29.8385C53.3691 30.0208 53.6035 30.1119 53.8639 30.1119H64.7628C65.0492 30.1119 65.2836 30.0208 65.4659 29.8385C65.6482 29.6301 65.7394 29.3957 65.7394 29.1353C65.7394 28.8488 65.6482 28.6144 65.4659 28.4321C65.2836 28.2498 65.0492 28.1587 64.7628 28.1587H54.8405V19.9162H63.0049C63.2914 19.9162 63.5257 19.825 63.708 19.6427C63.8903 19.4344 63.9815 19.2 63.9815 18.9396C63.9815 18.6531 63.8903 18.4187 63.708 18.2364C63.5257 18.0541 63.2914 17.963 63.0049 17.963H54.8405V11.1658H64.6846C64.9711 11.1658 65.2055 11.0747 65.3878 10.8924C65.5701 10.684 65.6612 10.4496 65.6612 10.1892C65.6612 9.90275 65.5701 9.66836 65.3878 9.48606C65.2055 9.30376 64.9711 9.21261 64.6846 9.21261H53.7467C53.5123 9.21261 53.304 9.31678 53.1217 9.52513C52.9654 9.70743 52.8873 9.92879 52.8873 10.1892V29.1353C52.8873 29.3957 52.9784 29.6301 53.1607 29.8385Z" fill="white"/>
<path d="M80.4784 11.1658C81.2337 11.3221 81.9238 11.5304 82.5488 11.7908C82.8874 11.9211 83.1087 12.0122 83.2129 12.0643C83.3171 12.0903 83.3952 12.1034 83.4473 12.1034C83.7077 12.1034 83.9291 12.0122 84.1114 11.8299C84.3197 11.6216 84.4239 11.3872 84.4239 11.1268C84.4239 10.684 84.2156 10.3845 83.7989 10.2283C82.8353 9.83764 81.9108 9.53815 81.0253 9.32981C80.1659 9.09542 79.02 8.97823 77.5877 8.97823C76.2335 8.97823 75.0876 9.22564 74.1501 9.72045C73.2125 10.2153 72.4963 10.8533 72.0015 11.6346C71.5328 12.3898 71.2984 13.1841 71.2984 14.0175C71.2984 14.929 71.4807 15.7624 71.8453 16.5176C72.2359 17.2728 72.926 17.9499 73.9157 18.5489C74.9313 19.1479 76.3637 19.6818 78.2127 20.1506C80.192 20.6454 81.6113 21.2574 82.4707 21.9866C83.3562 22.7158 83.7989 23.6273 83.7989 24.7211C83.7989 25.7628 83.3301 26.6612 82.3926 27.4165C81.4811 28.1457 80.1399 28.5103 78.369 28.5103C76.1293 28.5103 74.0849 27.9894 72.2359 26.9477C72.0797 26.8696 71.9234 26.8305 71.7671 26.8305C71.4807 26.8305 71.2463 26.9347 71.064 27.143C70.8817 27.3514 70.7905 27.5727 70.7905 27.8071C70.7905 28.1717 70.9598 28.4582 71.2984 28.6665C73.4599 29.8645 75.8168 30.4635 78.369 30.4635C80.1659 30.4635 81.5983 30.19 82.666 29.6431C83.7598 29.0702 84.5411 28.354 85.0099 27.4946C85.5047 26.6092 85.7521 25.6846 85.7521 24.7211C85.7521 23.7314 85.5437 22.833 85.1271 22.0256C84.7104 21.1923 83.9812 20.4501 82.9395 19.799C81.9238 19.1479 80.4784 18.614 78.6034 18.1974C76.4939 17.7025 75.0746 17.1166 74.3454 16.4395C73.6162 15.7624 73.2516 15.0071 73.2516 14.1738C73.2516 13.3404 73.6422 12.5982 74.4235 11.9471C75.2048 11.27 76.2595 10.9314 77.5877 10.9314C78.7857 10.9314 79.7492 11.0096 80.4784 11.1658Z" fill="white"/>
<path fill-rule="evenodd" clip-rule="evenodd" d="M128.51 29.7603C128.719 29.9947 128.966 30.1119 129.252 30.1119C129.539 30.1119 129.773 30.0077 129.956 29.7994C130.138 29.591 130.229 29.3697 130.229 29.1353C130.229 28.8749 130.151 28.6665 129.995 28.5103L124.408 21.9866C126.023 21.5438 127.208 20.7495 127.963 19.6037C128.745 18.4578 129.135 17.1817 129.135 15.7754C129.135 14.4993 128.823 13.3794 128.198 12.4159C127.599 11.4262 126.739 10.645 125.619 10.072C124.526 9.49908 123.21 9.21261 121.674 9.21261H115.932C115.671 9.21261 115.437 9.30376 115.228 9.48606C115.046 9.66836 114.955 9.90275 114.955 10.1892V29.1353C114.955 29.3957 115.046 29.6301 115.228 29.8385C115.437 30.0208 115.671 30.1119 115.932 30.1119C116.218 30.1119 116.452 30.0208 116.635 29.8385C116.817 29.6301 116.908 29.3957 116.908 29.1353V22.3381H122.143L128.51 29.7603ZM116.908 20.3849V11.1658H121.674C123.289 11.1658 124.604 11.5955 125.619 12.4549C126.661 13.2883 127.182 14.3951 127.182 15.7754C127.182 17.0515 126.713 18.1453 125.776 19.0568C124.838 19.9422 123.471 20.3849 121.674 20.3849H116.908Z" fill="white"/>
<path fill-rule="evenodd" clip-rule="evenodd" d="M152.272 29.4869C152.429 29.9036 152.728 30.1119 153.171 30.1119C153.431 30.1119 153.653 30.0208 153.835 29.8385C154.043 29.6301 154.148 29.3957 154.148 29.1353C154.148 29.0832 154.121 28.979 154.069 28.8228C154.043 28.6665 153.926 28.354 153.718 27.8852C153.327 26.9217 152.819 25.7107 152.194 24.2523C151.569 22.7679 150.879 21.1792 150.124 19.4865C149.369 17.7676 148.587 16.0358 147.78 14.2909C146.999 12.5461 146.257 10.9184 145.553 9.40793C145.397 9.04334 145.085 8.86104 144.616 8.86104H144.46C144.017 8.86104 143.704 9.05636 143.522 9.447C142.845 10.9314 142.142 12.507 141.413 14.1738C140.683 15.8405 139.967 17.4942 139.264 19.1349C138.561 20.7756 137.897 22.3512 137.272 23.8616C136.673 25.3721 136.152 26.7133 135.709 27.8852C135.527 28.328 135.41 28.6275 135.358 28.7837C135.332 28.9139 135.319 29.0181 135.319 29.0962C135.319 29.3827 135.41 29.6301 135.592 29.8385C135.8 30.0208 136.022 30.1119 136.256 30.1119C136.465 30.1119 136.66 30.0598 136.842 29.9556C137.024 29.8254 137.155 29.6562 137.233 29.4478C137.493 28.7447 137.78 27.9764 138.092 27.143C138.431 26.2836 138.782 25.3851 139.147 24.4476H150.163C150.58 25.3851 150.97 26.2836 151.335 27.143C151.699 28.0024 152.012 28.7837 152.272 29.4869ZM146.96 17.1426C147.793 18.9656 148.587 20.7495 149.343 22.4944H139.967C140.696 20.7495 141.452 18.9786 142.233 17.1817C143.04 15.3587 143.809 13.6138 144.538 11.9471C145.319 13.5878 146.126 15.3196 146.96 17.1426Z" fill="white"/>
<path d="M168.96 10.8142C170.914 10.8142 172.528 11.1528 173.804 11.8299C173.961 11.908 174.117 11.9471 174.273 11.9471C174.56 11.9471 174.794 11.8429 174.976 11.6346C175.159 11.4262 175.25 11.2049 175.25 10.9705C175.25 10.6059 175.08 10.3194 174.742 10.1111C173.231 9.27772 171.304 8.86104 168.96 8.86104C167.059 8.86104 165.301 9.31678 163.687 10.2283C162.072 11.1398 160.77 12.4159 159.78 14.0566C158.791 15.6973 158.296 17.6114 158.296 19.799C158.296 21.8043 158.726 23.6142 159.585 25.2289C160.444 26.8435 161.681 28.1196 163.296 29.0572C164.937 29.9947 166.903 30.4635 169.195 30.4635C170.289 30.4635 171.317 30.3463 172.281 30.1119C173.244 29.9036 174.117 29.591 174.898 29.1744C175.263 29.0181 175.445 28.7316 175.445 28.315C175.445 28.0285 175.354 27.7941 175.172 27.6118C174.989 27.4295 174.755 27.3384 174.468 27.3384C174.312 27.3384 174.169 27.3774 174.039 27.4555C173.388 27.7941 172.645 28.0545 171.812 28.2368C171.005 28.4191 170.132 28.5103 169.195 28.5103C167.32 28.5103 165.705 28.1327 164.351 27.3774C163.023 26.5961 162.007 25.5544 161.304 24.2523C160.601 22.9241 160.249 21.4397 160.249 19.799C160.249 18.002 160.653 16.4395 161.46 15.1113C162.267 13.7571 163.322 12.7023 164.624 11.9471C165.952 11.1919 167.398 10.8142 168.96 10.8142Z" fill="white"/>
<path d="M196.009 29.7603C196.217 29.9947 196.464 30.1119 196.751 30.1119C197.037 30.1119 197.272 30.0077 197.454 29.7994C197.636 29.591 197.727 29.3697 197.727 29.1353C197.727 28.8749 197.649 28.6665 197.493 28.5103C196.998 27.9373 196.386 27.2212 195.657 26.3617C194.954 25.5023 194.199 24.5908 193.391 23.6273C192.584 22.6637 191.79 21.7131 191.008 20.7756C190.253 19.838 189.576 19.0177 188.977 18.3145C190.305 17.0905 191.66 15.8144 193.04 14.4863C194.446 13.132 195.657 11.9211 196.673 10.8533C196.855 10.6189 196.946 10.3976 196.946 10.1892C196.946 9.92879 196.842 9.70743 196.634 9.52513C196.451 9.31678 196.23 9.21261 195.97 9.21261C195.709 9.21261 195.475 9.31678 195.266 9.52513C194.485 10.3325 193.587 11.2309 192.571 12.2205C191.555 13.1841 190.514 14.1738 189.446 15.1894C188.378 16.179 187.349 17.1296 186.36 18.0411C185.396 18.9266 184.55 19.7078 183.821 20.3849V10.1892C183.821 9.90275 183.73 9.66836 183.547 9.48606C183.365 9.30376 183.131 9.21261 182.844 9.21261C182.584 9.21261 182.349 9.30376 182.141 9.48606C181.959 9.66836 181.867 9.90275 181.867 10.1892V29.1353C181.867 29.3957 181.959 29.6301 182.141 29.8385C182.349 30.0208 182.584 30.1119 182.844 30.1119C183.131 30.1119 183.365 30.0208 183.547 29.8385C183.73 29.6301 183.821 29.3957 183.821 29.1353V23.0022C184.211 22.6376 184.732 22.1689 185.383 21.5959C186.034 20.9969 186.75 20.3329 187.532 19.6037C188.131 20.3329 188.808 21.1662 189.563 22.1038C190.344 23.0153 191.126 23.9528 191.907 24.9164C192.714 25.88 193.469 26.7915 194.173 27.6509C194.902 28.4842 195.514 29.1874 196.009 29.7603Z" fill="white"/>
</svg>
